<svg width="100%" height="100%" xmlns="http://www.w3.org/2000/svg" preserveAspectRatio="none" style="display: block;" version="1.1" viewBox="0 0 2048 2048">

<path d="M 1005.7 557.594 C 1263.68 546.809 1481.55 747.246 1492.26 1005.24 C 1502.97 1263.23 1302.46 1481.03 1044.47 1491.67 C 786.585 1502.3 568.89 1301.9 558.184 1044.01 C 547.479 786.129 747.815 568.375 1005.7 557.594 z" fill="rgb(36,16,130)" transform="translate(0,0)"></path>
<path d="M 1009.39 626.816 C 1228.68 618.083 1413.63 788.562 1422.75 1007.84 C 1431.88 1227.11 1261.73 1412.36 1042.47 1421.87 C 822.659 1431.41 636.838 1260.74 627.693 1040.91 C 618.547 821.088 789.549 635.571 1009.39 626.816 z" fill="rgb(255,255,255)" transform="translate(0,0)"></path>
<path d="M 1017.21 677.213 C 1019.79 676.969 1022.37 676.809 1024.96 676.733 C 1038.69 676.456 1057.65 688.034 1059.06 702.359 C 1061.52 727.401 1060.51 754.029 1060.51 779.367 L 1060.33 941.859 C 1086.22 952.878 1101.33 969.36 1112.2 994.907 L 1237.14 994.737 C 1257.19 994.696 1279.16 994.093 1299.01 995.405 C 1315.31 997.766 1325.51 1012.3 1326.06 1027.55 C 1326.61 1042.71 1316.27 1059.35 1301.23 1062.14 C 1289.28 1064.36 1270.64 1063.23 1257.79 1063.16 L 1189.5 1063.01 C 1163.4 1062.97 1137.31 1063.08 1111.22 1063.33 C 1087.29 1107.2 1045.87 1132.52 995.685 1115.44 C 972.73 1107.56 953.9 1090.79 943.414 1068.9 C 937.501 1056.6 934.896 1045.06 934.541 1031.49 C 933.447 989.609 954.089 960.573 990.966 943.078 L 990.987 785.711 C 990.971 760.021 990.578 734.154 991.407 708.495 C 991.935 692.146 1003.37 682.902 1017.21 677.213 z" fill="rgb(36,16,130)" transform="translate(0,0)"></path>
<path d="M 1023.05 1004.42 C 1035.83 1002.98 1047.36 1012.14 1048.86 1024.91 C 1050.35 1037.68 1041.24 1049.25 1028.48 1050.79 C 1015.64 1052.35 1003.99 1043.17 1002.49 1030.33 C 1000.99 1017.49 1010.21 1005.88 1023.05 1004.42 z" fill="rgb(255,255,255)" transform="translate(0,0)"></path>
</svg>