<svg width="100%" height="100%" xmlns="http://www.w3.org/2000/svg" preserveAspectRatio="none" style="display: block;" version="1.1" viewBox="0 0 2048 2048">

<path d="M 695.248 640.472 C 733.463 639.678 774.72 640.794 813.245 640.796 L 1107.22 640.751 L 1276.68 640.943 C 1317.57 640.911 1369.51 638.891 1408.75 645.264 C 1466.45 654.121 1521.43 675.799 1569.65 708.704 C 1663.92 774.041 1714.91 856.574 1735.2 968.761 C 1742.6 968.509 1750.01 968.33 1757.42 968.224 C 1787.82 967.783 1825.04 963.12 1847.79 986.748 C 1860.7 1000.16 1867.74 1014.83 1867.69 1033.66 C 1867.73 1050.98 1860.71 1067.57 1848.24 1079.58 C 1840.95 1086.82 1831.95 1092.11 1822.08 1094.95 C 1806.06 1099.51 1751.26 1098.05 1731.29 1098.03 C 1721.86 1138.75 1712.95 1170.16 1692.84 1207.81 C 1642.67 1300.47 1557.42 1369.12 1456.21 1398.4 C 1372.98 1423.25 1279.58 1411.09 1203.4 1370.13 C 1168.85 1349.1 1142.76 1327.73 1118.19 1295.13 C 1099.56 1270.42 1094.38 1244.94 1068.13 1227.9 C 1050.5 1216.24 1028.89 1212.25 1008.26 1216.83 C 982.521 1222.64 966.093 1238.59 953.291 1261.07 C 857.414 1429.48 640.731 1449.01 489.175 1352.11 C 421.906 1308.93 369.596 1246.05 339.379 1172.05 C 329.396 1146.93 324.6 1127.57 318.842 1101.41 C 303.767 1101.16 288.689 1101.04 273.611 1101.05 C 245.884 1100.97 223.226 1102.76 201.98 1081.51 C 189.703 1069.4 182.827 1052.84 182.905 1035.59 C 183.126 1007.93 198.237 985.271 224.097 975.188 C 239.376 969.231 255.451 970.095 271.556 970.144 C 286.589 970.231 301.62 970.478 316.647 970.885 C 323.698 897.721 368.574 814.244 419.012 761.734 C 493.983 683.683 588.042 643.821 695.248 640.472 z" fill="rgb(32,27,136)" transform="translate(0,0)"></path>
<path d="M 686.562 774.42 C 703.478 773.367 724.003 773.887 741.225 773.915 L 826.457 773.966 L 1101.83 773.928 L 1273.42 773.915 C 1310.07 773.784 1362 771.517 1396.54 777.58 C 1441.77 785.535 1484.08 805.37 1519.12 835.054 C 1569.57 878.228 1601.2 939.371 1607.29 1005.49 C 1612.54 1073.98 1590.1 1141.72 1545 1193.53 C 1502.9 1241.91 1443.44 1271.76 1379.5 1276.64 C 1321.61 1280.52 1269.9 1262.77 1226.48 1224.74 C 1208.65 1206.37 1204.01 1194.11 1190.79 1173.11 C 1182.31 1159.64 1165.29 1142.12 1153.14 1131.91 C 1113.14 1097.67 1060.99 1081.09 1008.57 1085.94 C 950.156 1091.29 896.851 1121.46 862.185 1168.78 C 850.949 1184.29 844.559 1200.44 831.446 1215.75 C 800.218 1251.95 750.082 1273.22 702.99 1276.62 C 566.87 1286.43 452.082 1181.59 442.797 1046.52 C 437.971 979.59 460.052 913.503 504.14 862.918 C 553.344 807.129 612.679 779.035 686.562 774.42 z" fill="rgb(255,255,255)" transform="translate(0,0)"></path>
</svg>