<svg width="100%" height="100%" xmlns="http://www.w3.org/2000/svg" preserveAspectRatio="none" style="display: block;" version="1.1" viewBox="0 0 2048 2048">

<path d="M 918.418 196.325 C 953.81 191.839 978.038 231.143 964.179 262.281 C 957.27 277.803 949.684 292.983 942.605 308.436 C 875.659 454.241 868.895 620.561 923.781 771.321 C 979.668 918.38 1090.63 1037.89 1233.15 1104.51 C 1368.22 1167.39 1521.46 1179.36 1664.66 1138.24 C 1682.8 1132.96 1701.44 1127.2 1718.84 1119.81 C 1731.95 1114.25 1744.9 1107.18 1758.25 1102.34 C 1770.85 1097.77 1784.42 1097.66 1796.58 1103.63 C 1807.47 1108.97 1815.28 1119.12 1819.14 1130.5 C 1830.82 1165.02 1784.92 1266.04 1768.21 1299.71 C 1675.33 1483.27 1514.1 1623.02 1319.23 1688.92 C 1287.73 1699.96 1245.66 1709.54 1212.74 1714.87 C 1008.53 1749.96 798.769 1701.87 630.24 1581.32 C 457.656 1456.44 349.626 1284.05 316.289 1073.51 C 285.863 870.937 335.921 664.506 455.754 498.374 C 560.072 355.005 740.31 224.252 918.418 196.325 z" fill="#3b5bb5" transform="translate(0,0)"></path>
<path d="M 853.885 300.072 C 854.266 300.555 854.646 301.038 855.027 301.521 C 847.873 320.099 831.674 361.752 826.687 378.317 C 789.02 503.256 789.586 636.606 828.313 761.221 C 885.371 940.283 1011.69 1089.08 1179.12 1174.44 C 1313.48 1242.91 1466.68 1265.11 1614.94 1237.59 C 1648.5 1231.31 1677.03 1223.17 1709.26 1212.79 C 1704.16 1226.83 1695.26 1246.31 1688.78 1259.88 C 1610.83 1419.63 1473.36 1542.44 1305.87 1601.96 C 1133.79 1659.98 945.925 1649.06 781.73 1571.49 C 618.299 1492.83 492.888 1352.36 433.172 1181.09 C 309.356 829.118 501.011 423.515 853.885 300.072 z" fill="rgb(255,255,255)" transform="translate(0,0)"></path>
<path d="M 1325.49 443.616 C 1327.87 445.8 1394.9 610.464 1402.22 630.34 C 1464.66 655.524 1526.9 681.193 1588.94 707.344 C 1575.92 713.417 1558.06 720.159 1544.39 725.91 L 1405.77 782.625 C 1390.69 814.073 1377.86 845.86 1364.29 877.948 C 1351.81 907.463 1338.49 936.61 1326.59 966.379 L 1325.3 966.002 C 1299.38 905.189 1274.94 843.453 1248.81 782.771 L 1135.19 735.88 C 1113 726.778 1086.06 716.445 1064.84 705.84 C 1072.65 702.314 1081.62 698.614 1089.69 695.646 C 1143.29 675.958 1195.56 650.539 1248.63 630.011 C 1259.18 609.614 1270.44 578.949 1279.43 556.907 C 1295.19 519.31 1310.55 481.545 1325.49 443.616 z" fill="#3b5bb5" transform="translate(0,0)"></path>
<path d="M 1326.77 626.853 C 1328.55 629.268 1333 644.394 1334.58 648.476 C 1350.35 689.287 1369.15 692.367 1405.36 708.289 C 1391.92 715.252 1377.37 719.939 1364.11 727.437 C 1341.52 740.204 1335.49 767.002 1325.93 789.579 C 1306.45 731.189 1299.6 730.18 1245.77 706.498 C 1251.37 704.384 1256.94 702.22 1262.5 700.007 C 1308.21 681.67 1308.04 670.767 1326.77 626.853 z" fill="rgb(255,255,255)" transform="translate(0,0)"></path>
</svg>