<svg width="100%" height="100%" xmlns="http://www.w3.org/2000/svg" preserveAspectRatio="none" style="display: block;" version="1.1" viewBox="0 0 2048 2048">

<path d="M 1011.71 776.508 L 1045.52 776.276 L 1194.96 776.49 C 1225.73 776.479 1278.89 774.987 1308.24 778.099 C 1363.55 784.344 1415.09 809.204 1454.4 848.599 C 1500.69 894.863 1528.99 957.056 1529.02 1023 C 1529.04 1087.67 1503.31 1153.92 1457.09 1199.56 C 1415.83 1240.88 1361.53 1266.62 1303.42 1272.4 C 1276.94 1274.8 1224.58 1273.13 1196.27 1273.18 L 1036.75 1273.35 L 862.952 1273.17 C 829.043 1273.07 777.79 1275.24 745.381 1272.14 C 690.324 1266.69 638.638 1243.1 598.434 1205.1 C 451.486 1063.57 524.141 822.384 720.884 781.404 C 757.984 773.676 814.142 776.871 853.182 776.852 L 1011.71 776.508 z" fill="rgb(35,22,136)" transform="translate(0,0)"></path>
<path d="M 766.526 872.428 C 790.688 871.673 817.119 872.34 841.486 872.307 L 979.907 872.048 L 979.724 1176.86 L 830.5 1176.96 C 767.649 1177 716.48 1182.91 665.76 1137.88 C 635.629 1110.83 617.553 1072.86 615.552 1032.42 C 613.193 991.641 627.447 951.644 655.064 921.548 C 686.133 887.555 721.615 874.275 766.526 872.428 z" fill="rgb(255,255,255)" transform="translate(0,0)"></path>
<path d="M 1069.81 872.018 L 1202.79 871.99 C 1273.52 871.903 1331.8 862.333 1387.89 915.601 C 1417.06 943.159 1433.79 981.373 1434.27 1021.5 C 1435.05 1064.84 1419.29 1100.95 1389.63 1131.93 L 1388.08 1133.41 C 1364.21 1156.22 1327.35 1175.52 1293.76 1175.99 C 1219.63 1177.04 1144.12 1178.23 1069.99 1176.46 C 1068.83 1076.55 1069.59 972.147 1069.81 872.018 z" fill="rgb(255,255,255)" transform="translate(0,0)"></path>
</svg>