<svg width="100%" height="100%" xmlns="http://www.w3.org/2000/svg" preserveAspectRatio="none" style="display: block;" version="1.1" viewBox="0 0 2048 2048">

<path d="M 768.21 243.38 C 782.736 241.356 826.552 242.752 843.028 242.783 L 997.572 242.791 L 1186.9 242.722 C 1211.33 242.739 1259.95 241.458 1282.98 243.697 C 1306.7 246.013 1329.72 253.101 1350.64 264.536 C 1428.36 306.233 1438.21 373.202 1460.76 449.813 L 1493.95 561.388 C 1610.22 575.325 1701.91 664.524 1713.75 782.736 C 1716.53 810.544 1714.84 843.117 1714.84 871.384 L 1714.86 1024.59 L 1714.94 1175.32 C 1714.97 1213.67 1717.41 1259.04 1709.55 1296.05 C 1688.8 1393.74 1595.33 1481.22 1494.87 1489.53 C 1482.13 1525.45 1471.65 1563.81 1460.4 1599.42 C 1439.31 1666.18 1430.52 1732.73 1368.74 1775.69 C 1339.67 1795.9 1319.24 1804.39 1284.07 1809.75 C 1267.41 1812.79 1229.2 1811.7 1211.2 1811.64 L 1099.3 1811.62 L 885.651 1811.82 C 858.674 1811.83 831.398 1811.6 804.446 1811.82 C 767.535 1812.11 739.362 1808.19 706.195 1791.74 C 675.096 1776.41 649.089 1752.42 631.303 1722.65 C 615.131 1695.53 604.515 1649.17 594.674 1618.13 C 581.348 1576.09 570.029 1531.87 556.082 1490.18 C 505.214 1483.97 454.454 1463.07 416.813 1428.27 C 368.661 1383.74 336.996 1320.83 336.352 1254.76 C 336.018 1220.39 336.098 1185.36 336.139 1150.67 L 336.218 970.506 L 336.03 861.682 C 335.965 823.842 333.835 787.639 342.276 750.526 C 352.231 707.411 373.734 667.819 404.479 635.995 C 441.119 597.669 501.402 564.026 555.191 562.882 C 560.785 547.301 566.749 525.977 571.554 509.89 L 599.052 416.961 C 605.536 395.007 611.941 370.229 621.329 349.536 C 647.106 292.713 706.396 250.455 768.21 243.38 z" fill="rgb(46,35,132)" transform="translate(0,0)"></path>
<path d="M 575.802 684.459 C 682.033 685.132 788.268 685.077 894.498 684.295 C 1004.42 685.033 1114.35 685.18 1224.28 684.738 L 1400.14 684.813 C 1421.48 684.804 1469.35 683.281 1487.53 685.747 C 1510.51 689.033 1532.02 698.96 1549.42 714.309 C 1572.96 734.876 1587.44 763.893 1589.71 795.065 C 1591.36 820.33 1590.17 861.794 1590.21 888.318 L 1590.31 1075.07 L 1590.42 1199.84 C 1590.42 1220.87 1592.17 1249.56 1588.62 1269.68 C 1578.45 1327.41 1527.93 1365.48 1472.33 1368.56 C 1450.68 1369.27 1425.7 1368.47 1403.84 1368.34 L 1293.18 1368.14 L 897.495 1367.99 L 676.158 1367.99 L 610.158 1368.02 C 594.119 1368.01 577.782 1368.5 561.969 1366.58 C 507.795 1360.02 462.244 1311.47 460.803 1256.59 C 459.942 1223.78 460.088 1190.98 460.043 1158.19 L 460.198 968.221 L 460.493 857.61 C 460.402 810.12 454.751 763.155 489.228 724.932 C 511.536 700.438 542.702 685.868 575.802 684.459 z" fill="rgb(255,255,255)" transform="translate(0,0)"></path>
<path d="M 875.625 794.252 C 934.16 790.801 944.318 833.164 963.292 876.526 L 1021.33 1009.04 C 1028.36 1024.82 1037.55 1049.65 1045.98 1064.03 L 1110.92 948.319 C 1123.34 926.197 1144.6 881.841 1164.41 868.662 C 1178.53 859.219 1195.83 855.788 1212.48 859.129 C 1247.36 866.184 1265.45 903.19 1283.47 930.682 L 1326.22 995.341 L 1396.17 994.976 C 1427.59 994.944 1458.3 991.32 1478.89 1020.51 C 1488.36 1034.03 1492.04 1050.76 1489.14 1067 C 1478.22 1129.53 1404.93 1115.75 1359.27 1116.61 C 1337.88 1117.01 1309.86 1117.55 1289.1 1114.93 C 1247.98 1109.76 1227.88 1059.19 1207.19 1028.93 C 1196.15 1046.22 1182.11 1074.31 1172.11 1092.9 C 1159.2 1116.39 1146.45 1139.96 1133.86 1163.61 C 1122.24 1185.5 1108.51 1212.78 1093.91 1232.25 C 1068.73 1265.63 1011.23 1264.06 988.327 1229.11 C 977.901 1213.2 967.801 1186.29 959.742 1168.45 L 906.494 1048.26 C 896.872 1026.54 886.488 1002.07 875.911 980.941 C 868.304 995.713 859.16 1011.71 850.807 1025.95 C 833.375 1055.67 820.712 1090.08 788.574 1106.86 C 766.601 1118.34 746.084 1116.61 722.184 1116.61 L 671.206 1116.63 C 639.208 1116.56 599.55 1122.03 576.777 1098.3 C 565.537 1086.54 559.419 1070.8 559.765 1054.53 C 560.164 1038.48 566.849 1022.5 578.756 1011.59 C 586.051 1004.94 594.966 1000.33 604.609 998.209 C 618.888 994.973 644.295 995.928 659.87 995.974 C 681.074 995.887 702.279 996.098 723.478 996.606 C 761.083 938.169 796.985 878.247 834.442 819.715 C 843.818 805.063 858.687 797.078 875.625 794.252 z" fill="rgb(46,35,132)" transform="translate(0,0)"></path>
<path d="M 682.927 1489.96 C 708.675 1488.7 740.248 1489.63 766.439 1489.66 L 912.248 1489.73 L 1367.13 1489.92 L 1338.14 1588.27 C 1332.44 1607.51 1326.63 1628.85 1320.1 1647.66 C 1306.36 1681.75 1284.34 1691.15 1249.35 1691.37 C 1224.83 1691.53 1200.16 1691.77 1175.61 1691.72 L 1033.64 1691.43 L 873.732 1691.71 C 845.053 1691.77 816.009 1692.56 787.395 1691.31 C 732.773 1688.92 724.574 1633.23 712.616 1591.77 C 702.972 1557.76 693.076 1523.82 682.927 1489.96 z" fill="rgb(255,255,255)" transform="translate(0,0)"></path>
<path d="M 786.591 364.407 C 816.841 363.289 852.571 364.325 883.248 364.293 L 1070.42 363.959 L 1199.85 364.077 C 1222.14 364.062 1244.94 363.408 1267.11 364.307 C 1288.68 365.949 1307.74 378.241 1317.33 397.683 C 1324.4 412.253 1328.54 428.806 1332.84 444.46 C 1343.73 484.102 1356.2 523.75 1366.42 563.529 C 1332.52 564.179 1296.94 563.47 1262.99 563.223 L 891.374 563.312 C 823.52 563.366 749.287 565.156 682.141 562.989 C 694.58 528.437 703.593 489.134 714.584 453.706 C 727.852 410.942 731.38 368.812 786.591 364.407 z" fill="rgb(255,255,255)" transform="translate(0,0)"></path>
</svg>