<svg width="100%" height="100%" xmlns="http://www.w3.org/2000/svg" preserveAspectRatio="none" style="display: block;" version="1.1" viewBox="0 0 2048 2048">

<path d="M 990.195 288.42 C 1008.26 287.595 1026.34 287.421 1044.41 287.896 C 1248.34 292.707 1441.97 378.454 1582.58 526.219 C 1720.55 671.895 1795.44 866.145 1790.97 1066.74 C 1787.11 1211.36 1751.81 1337.2 1671.83 1458.37 C 1661.98 1473.28 1629.1 1518.61 1616.54 1530.35 C 1603.37 1542.77 1585.79 1549.44 1567.7 1548.88 C 1548.95 1548.18 1531.25 1540.04 1518.52 1526.26 C 1501.98 1508.18 1496.38 1482.13 1503.13 1458.62 C 1508.23 1440.88 1525.26 1423.18 1536.91 1408.52 C 1544.57 1398.92 1551.8 1389 1558.58 1378.76 C 1611.6 1298.77 1645.28 1169.64 1650 1074.72 C 1666.38 745.525 1393.36 444.702 1063.95 430.821 C 1034.85 428.424 992.64 429.584 963.612 432.489 C 799.037 449.218 647.982 531.051 544.077 659.77 C 429.203 798.598 380.374 980.516 410.288 1158.21 C 419.659 1215.78 438.958 1279.1 466.369 1330.79 C 479.633 1355.79 494.584 1379.85 511.12 1402.82 C 519.821 1414.66 536.59 1433.83 542.81 1445.07 C 547.427 1453.44 550.28 1462.66 551.192 1472.18 C 552.785 1490.86 546.919 1509.41 534.876 1523.78 C 522.538 1538.47 503.879 1547.12 484.902 1548.64 C 466.897 1550.13 449.044 1544.34 435.34 1532.57 C 422.311 1521.2 400.95 1491.06 390.676 1476.46 C 313.89 1365.65 268.916 1235.92 260.631 1101.36 C 249.307 898.329 318.648 699.041 453.557 546.887 C 533.756 455.89 634.273 385.076 746.955 340.188 C 827.654 307.852 903.382 294.013 990.195 288.42 z" fill="rgb(43,36,138)" transform="translate(0,0)"></path>
<path d="M 1023 553.485 C 1047.32 553.78 1070.51 554.539 1094.66 557.925 C 1203.01 573.891 1303.31 624.398 1380.64 701.935 C 1474.78 796.51 1527.54 924.573 1527.35 1058.01 C 1526.98 1144.87 1500.21 1235.95 1452.84 1308.98 C 1433.25 1339.2 1417.18 1360.27 1377.74 1359.61 C 1328.79 1358.78 1295.82 1303.52 1318.4 1260.1 C 1323.89 1249.54 1332.1 1240.55 1338.58 1230.42 C 1345.83 1218.91 1352.15 1206.83 1357.49 1194.31 C 1374.77 1154.53 1384.4 1111.85 1385.89 1068.5 C 1389.85 973.678 1355.37 881.276 1290.27 812.227 C 1223.77 739.736 1130.63 697.429 1032.29 695.042 C 1023.83 694.938 1015.37 695.086 1006.92 695.485 C 908.723 700.535 820.449 749.701 755.511 822.041 C 664.653 924.607 641.48 1070.54 696.094 1196.2 C 700.673 1206.6 706.003 1216.66 712.042 1226.28 C 724.825 1246.44 739.326 1262.11 740.488 1286.84 C 741.554 1306.11 734.833 1325 721.834 1339.27 C 709.575 1352.82 692.287 1360.72 674.026 1361.13 C 629.972 1362.34 609.581 1328.12 589.995 1294.29 C 549.07 1224.19 527.113 1144.64 526.285 1063.47 C 524.409 931.411 574.886 803.981 666.683 709.029 C 763.177 608.811 884.297 556.206 1023 553.485 z" fill="rgb(43,36,138)" transform="translate(0,0)"></path>
<path d="M 1111.21 1251.36 C 1151.25 1248.17 1183.53 1277.36 1184.41 1317.39 C 1184.95 1342.11 1185.57 1366.81 1185.8 1391.55 L 1186.34 1528.95 C 1186.66 1579.41 1186.32 1629.87 1185.32 1680.31 C 1184.94 1702.13 1186.38 1754.54 1178.29 1771.92 C 1170.56 1788.9 1156.13 1801.9 1138.44 1807.82 C 1097.39 1821.92 1061.57 1799.15 1048.1 1759.77 C 989.785 1756.9 940.584 1769.99 895.631 1723.63 C 862.372 1689.33 862.126 1655.82 862.08 1611.83 L 862.085 1555.5 L 862.07 1417.35 C 862.03 1397.83 859.707 1360.52 863.639 1342.8 C 879.13 1273.2 982.66 1270.38 998.211 1341.15 C 1002.72 1361.65 1000.47 1403.67 1000.6 1426.33 L 1000.88 1621.74 L 1048.08 1621.94 L 1048 1404.5 L 1048.08 1347.23 C 1048.14 1321.82 1045.52 1297.78 1062.81 1277 C 1076.42 1260.66 1090.31 1253.93 1111.21 1251.36 z" fill="rgb(43,36,138)" transform="translate(0,0)"></path>
<path d="M 1011.64 814.414 C 1027.29 812.269 1056.23 815.026 1071.61 817.933 C 1135.37 829.982 1188.46 868.565 1224.43 921.938 C 1260.62 975.231 1274.27 1040.67 1262.42 1103.98 C 1257.62 1128.59 1249.34 1151.61 1227.43 1166.01 C 1212.06 1176.06 1193.32 1179.57 1175.35 1175.77 C 1157.13 1171.97 1141.21 1160.98 1131.2 1145.29 C 1114.9 1120.13 1120.82 1099.02 1127.53 1073.45 C 1133.23 1051.71 1124.62 1016.85 1111.63 998.296 C 1094.1 973.24 1072.01 960.284 1042.51 954.246 C 1033.8 952.737 1023.02 952.53 1014.25 953.509 C 986.462 956.669 961.111 970.857 943.888 992.888 C 928.551 1012.54 918.767 1043.92 923.557 1068.27 C 929.692 1099.47 938.479 1123.23 915.972 1151.45 C 904.418 1165.89 887.547 1175.07 869.152 1176.95 C 823.064 1181.87 797.455 1147.1 789.913 1106.06 C 763.148 960.394 863.977 827.029 1011.64 814.414 z" fill="rgb(43,36,138)" transform="translate(0,0)"></path>
</svg>